<svg width="160" height="160" viewBox="0 0 64 64" fill="none" xmlns="http://www.w3.org/2000/svg">
  <defs>
    <!-- 主要渐变 -->
    <linearGradient id="mainGradient" x1="0%" y1="0%" x2="100%" y2="100%">
      <stop offset="0%" style="stop-color:#bd34fe"/>
      <stop offset="50%" style="stop-color:#7c3aed"/>
      <stop offset="100%" style="stop-color:#3b82f6"/>
    </linearGradient>
    
    <!-- 代码符号渐变 -->
    <linearGradient id="codeGradient" x1="0%" y1="0%" x2="100%" y2="0%">
      <stop offset="0%" style="stop-color:#06b6d4"/>
      <stop offset="100%" style="stop-color:#3b82f6"/>
    </linearGradient>
    
    <!-- 齿轮渐变 -->
    <linearGradient id="gearGradient" x1="0%" y1="0%" x2="100%" y2="100%">
      <stop offset="0%" style="stop-color:#f59e0b"/>
      <stop offset="100%" style="stop-color:#ef4444"/>
    </linearGradient>
    
    <!-- 阴影效果 -->
    <filter id="shadow" x="-20%" y="-20%" width="140%" height="140%">
      <feDropShadow dx="2" dy="2" stdDeviation="3" flood-opacity="0.2"/>
    </filter>
  </defs>
  
  <!-- 背景圆形 -->
  <circle cx="32" cy="32" r="30" fill="url(#mainGradient)" filter="url(#shadow)"/>
  
  <!-- 齿轮图标 -->
  <g transform="translate(42, 18) scale(0.8)">
    <path d="M12 15.5A3.5 3.5 0 0 1 8.5 12A3.5 3.5 0 0 1 12 8.5a3.5 3.5 0 0 1 3.5 3.5a3.5 3.5 0 0 1-3.5 3.5M19.43 12.97c.04-.32.07-.64.07-.97s-.03-.66-.07-.97l2.11-1.63c.19-.15.24-.42.12-.64l-2-3.46c-.12-.22-.39-.31-.61-.22l-2.49 1c-.52-.4-1.08-.73-1.69-.98l-.38-2.65C14.46 2.18 14.25 2 14 2h-4c-.25 0-.46.18-.49.42l-.38 2.65c-.61.25-1.17.59-1.69.98l-2.49-1c-.23-.09-.49 0-.61.22l-2 3.46c-.13.22-.07.49.12.64L4.57 11.03c-.04.31-.07.65-.07.97s.03.66.07.97l-2.11 1.66c-.19.15-.24.42-.12.64l2 3.46c.12.22.39.31.61.22l2.49-1.01c.52.4 1.08.73 1.69.98l.38 2.65c.03.24.24.42.49.42h4c.25 0 .46-.18.49-.42l.38-2.65c.61-.25 1.17-.59 1.69-.98l2.49 1.01c.23.09.49 0 .61-.22l2-3.46c.12-.22.07-.49-.12-.64l-2.11-1.66Z" 
          fill="url(#gearGradient)" opacity="0.9"/>
  </g>
  
  <!-- 代码符号 < /> -->
  <g transform="translate(8, 24)">
    <!-- 左尖括号 < -->
    <path d="M8 12L4 8L8 4" 
          stroke="url(#codeGradient)" 
          stroke-width="3" 
          stroke-linecap="round" 
          stroke-linejoin="round" 
          fill="none"/>
    
    <!-- 右尖括号和斜杠 /> -->
    <path d="M16 4L20 8L16 12" 
          stroke="url(#codeGradient)" 
          stroke-width="3" 
          stroke-linecap="round" 
          stroke-linejoin="round" 
          fill="none"/>
    
    <!-- 斜杠 / -->
    <path d="M14 2L10 14" 
          stroke="url(#codeGradient)" 
          stroke-width="2.5" 
          stroke-linecap="round" 
          fill="none"/>
  </g>
  
  <!-- 装饰性小点 -->
  <circle cx="48" cy="46" r="2.5" fill="#06b6d4" opacity="0.7"/>
  <circle cx="16" cy="48" r="1.8" fill="#f59e0b" opacity="0.8"/>
  <circle cx="52" cy="32" r="1.5" fill="#10b981" opacity="0.6"/>
  
  <!-- 高光效果 -->
  <ellipse cx="24" cy="20" rx="8" ry="6" fill="rgba(255,255,255,0.15)" transform="rotate(-20 24 20)"/>
</svg> 